<svg xmlns="http://www.w3.org/2000/svg" width="32" height="32" viewBox="0 0 1000 1000">
  <style>
    .bg { fill: #FAF9F5; }
    .icon { fill: #0F3CC9; }
    @media (prefers-color-scheme: light) {
      .bg { fill: #0A0A0A; }
      .icon { fill: #00B0FF; }
    }
  </style>
  <rect class="bg" width="1000" height="1000" rx="188"/>
  <g class="icon" transform="translate(0,1000) scale(0.1,-0.1)" stroke="none">
    <path d="M7185 8190 c-22 -5 -58 -9 -80 -9 -128 -2 -459 -182 -735 -400 -135
-106 -448 -423 -568 -574 -139 -174 -181 -239 -296 -447 -39 -71 -161 -317
-195 -392 -11 -27 -30 -67 -40 -90 -11 -24 -34 -79 -51 -123 -17 -44 -42 -102
-54 -130 -12 -27 -28 -66 -35 -85 -7 -19 -17 -44 -21 -55 -52 -130 -92 -244
-116 -335 -8 -30 -40 -131 -70 -225 -65 -199 -86 -286 -73 -300 13 -13 466 -9
579 5 135 17 222 31 260 40 19 5 112 28 205 50 94 23 181 45 195 49 14 5 43
14 65 20 22 7 50 17 63 22 12 5 32 13 45 18 124 50 228 98 397 184 173 89 247
135 429 270 320 238 554 509 711 825 59 120 87 191 115 297 84 319 49 656
-103 985 -59 128 -209 301 -302 347 -87 44 -247 70 -325 53z M2940 8083 c-57
-10 -100 -77 -100 -153 0 -99 74 -194 214 -275 77 -45 134 -103 166 -173 85
-180 110 -246 169 -437 32 -105 51 -268 51 -445 0 -119 -4 -170 -15 -196 -8
-20 -20 -34 -26 -32 -6 2 -31 42 -56 88 -162 301 -317 459 -625 641 -169 99
-293 175 -358 219 -119 80 -201 99 -283 65 -92 -38 -40 -153 97 -215 42 -19
93 -32 161 -40 55 -6 118 -16 140 -23 65 -18 245 -113 320 -169 86 -64 267
-243 322 -318 126 -171 239 -376 283 -515 33 -104 42 -125 49 -125 11 0 39
164 63 365 17 145 17 500 0 585 -40 197 -81 314 -173 500 -68 138 -112 248
-147 375 -7 22 -18 63 -26 91 -28 100 -79 166 -143 183 -39 11 -41 11 -83 4z
M3470 5888 c-140 -39 -162 -48 -265 -108 -87 -51 -99 -55 -181 -55 -101 -2
-139 -18 -215 -95 -91 -91 -133 -195 -93 -234 22 -23 86 -20 141 6 25 12 75
48 109 81 37 34 68 56 75 52 17 -11 1 -184 -23 -259 -67 -205 -212 -383 -342
-421 -50 -15 -58 -15 -85 0 -41 20 -51 43 -51 110 0 53 45 198 73 233 14 18 0
28 -21 16 -38 -24 -226 -248 -309 -369 -116 -169 -189 -431 -152 -546 38 -120
121 -214 240 -273 78 -38 104 -47 224 -72 79 -16 365 -19 442 -5 26 5 80 14
118 21 135 24 298 72 395 118 389 182 646 539 700 971 23 193 -1 334 -92 521
-66 136 -196 248 -333 287 -103 29 -129 33 -221 32 -55 -1 -115 -5 -134 -11z
M4588 4708 c-25 -11 -68 -72 -68 -98 0 -7 -23 -61 -51 -119 -137 -281 -298
-451 -506 -532 -108 -41 -108 -42 -105 -156 4 -138 36 -281 96 -424 37 -90 81
-84 296 39 271 155 526 409 677 672 53 93 55 97 111 221 63 138 129 346 118
374 -7 20 -75 26 -316 30 -147 2 -234 0 -252 -7z M5512 4567 c-6 -7 -16 -35
-23 -62 -35 -150 -99 -321 -179 -480 -133 -263 -226 -392 -431 -590 -190 -184
-392 -333 -599 -443 -77 -40 -92 -59 -67 -83 130 -127 394 -326 475 -359 81
-32 160 -4 362 130 142 94 256 203 390 371 173 217 273 372 373 579 60 125
107 228 107 235 0 3 9 27 21 53 23 52 38 87 49 117 4 11 17 44 29 74 32 81 28
129 -13 177 -31 36 -204 159 -303 215 -149 85 -170 92 -191 66z M6441 3756
c-6 -7 -14 -28 -17 -47 -12 -64 -86 -262 -142 -379 -155 -325 -455 -683 -800
-956 -40 -31 -72 -60 -72 -64 0 -31 359 -45 497 -20 84 15 241 64 297 92 197
99 347 267 414 463 37 111 46 168 46 305 -1 190 -20 264 -133 501 -50 106 -70
129 -90 105z M6660 2685 c-7 -9 -23 -37 -35 -63 -12 -26 -41 -68 -64 -94 -22
-25 -41 -53 -41 -62 0 -14 37 -40 219 -152 36 -23 143 -90 236 -149 387 -246
556 -347 574 -342 11 3 -132 152 -422 441 -241 240 -442 436 -446 436 -5 0
-14 -7 -21 -15z"/>
  </g>
</svg>
